<svg width="67" height="54" viewBox="0 0 67 54" fill="none" xmlns="http://www.w3.org/2000/svg">
<path d="M33.25 0.78833C30.1867 0.78833 27.249 2.00981 25.0829 4.18406C22.9169 6.35831 21.7 9.30723 21.7 12.3821H28.3C28.3 11.0643 28.8215 9.80046 29.7498 8.86864C30.6781 7.93682 31.9372 7.41333 33.25 7.41333C34.5628 7.41333 35.8219 7.93682 36.7502 8.86864C37.6785 9.80046 38.2 11.0643 38.2 12.3821C38.2 13.6999 37.6785 14.9637 36.7502 15.8955C35.8219 16.8273 34.5628 17.3508 33.25 17.3508C31.435 17.3508 29.95 18.8415 29.95 20.6633V26.4602L1.57 47.8258C1.01591 48.243 0.60662 48.8245 0.400105 49.4881C0.193591 50.1518 0.200322 50.8638 0.419345 51.5233C0.638368 52.1829 1.05858 52.7566 1.62046 53.1631C2.18233 53.5696 2.85739 53.7883 3.55 53.7883H62.95C63.6426 53.7883 64.3177 53.5696 64.8795 53.1631C65.4414 52.7566 65.8616 52.1829 66.0807 51.5233C66.2997 50.8638 66.3064 50.1518 66.0999 49.4881C65.8934 48.8245 65.4841 48.243 64.93 47.8258L36.55 26.4602V23.479C38.9314 22.7663 41.0203 21.3016 42.5066 19.3025C43.9928 17.3034 44.7971 14.8765 44.8 12.3821C44.8 9.30723 43.5831 6.35831 41.4171 4.18406C39.251 2.00981 36.3132 0.78833 33.25 0.78833ZM33.25 32.2571L53.05 47.1633H13.45L33.25 32.2571Z" fill="#4D4752"/>
</svg>
