<svg width="308" height="273" viewBox="0 0 308 273" fill="none" xmlns="http://www.w3.org/2000/svg">
<path fill-rule="evenodd" clip-rule="evenodd" d="M202.53 93.0781C218.597 89.5082 235.403 93.0464 252.323 103.871C272.223 116.593 284.947 131.826 292.708 143.935C296.589 149.989 299.239 155.278 300.939 159.114C301.79 161.034 302.405 162.594 302.818 163.711C303.025 164.269 303.181 164.717 303.292 165.044C303.347 165.207 303.391 165.341 303.424 165.443C303.44 165.493 303.454 165.536 303.465 165.571L303.48 165.618L303.488 165.645C303.489 165.648 303.49 165.652 294.832 168.314L303.49 165.652C304.972 170.452 302.297 175.535 297.515 177.005C292.743 178.473 287.677 175.788 286.183 171.007C286.181 171 286.179 170.993 286.177 170.986L286.178 170.989L286.18 170.995C286.172 170.971 286.154 170.916 286.125 170.831C286.068 170.663 285.969 170.378 285.825 169.987C285.535 169.205 285.063 168 284.377 166.452C283.004 163.354 280.783 158.901 277.468 153.729C270.839 143.387 259.88 130.229 242.611 119.19L242.607 119.188C228.93 110.438 217.001 108.496 206.506 110.828C195.78 113.211 185.183 120.365 175.023 132.404C175.023 132.404 175.022 132.405 175.022 132.405C165.74 143.412 164.372 158.649 165.456 175.753C165.721 179.93 166.118 184.078 166.532 188.203C166.593 188.812 166.654 189.423 166.716 190.033C167.066 193.503 167.418 196.982 167.672 200.28C168.247 207.726 168.502 215.86 166.409 222.577C164.918 227.364 159.835 230.02 155.056 228.509C150.277 226.997 147.612 221.891 149.104 217.104C150.045 214.083 150.179 209.158 149.598 201.624C149.361 198.559 149.035 195.329 148.684 191.85C148.621 191.23 148.558 190.601 148.494 189.965C148.078 185.814 147.651 181.382 147.364 176.848C146.239 159.11 147.005 137.426 161.166 120.637L161.167 120.636C172.906 106.725 186.695 96.5964 202.53 93.0781ZM286.176 170.983C286.176 170.984 286.177 170.985 286.177 170.986L286.176 170.983Z" fill="#9BE1FF"/>
<path fill-rule="evenodd" clip-rule="evenodd" d="M104.874 93.0781C88.8073 89.5082 72.0009 93.0464 55.0817 103.871C35.1811 116.593 22.4574 131.826 14.6958 143.935C10.8155 149.989 8.16489 155.278 6.46483 159.114C5.61418 161.034 4.99944 162.594 4.58621 163.711C4.37954 164.269 4.22306 164.717 4.11252 165.044C4.05725 165.207 4.01343 165.341 3.98055 165.443C3.96411 165.493 3.95039 165.536 3.93934 165.571L3.92476 165.618L3.91642 165.645C3.91526 165.648 3.91413 165.652 12.5723 168.314L3.91413 165.652C2.4323 170.452 5.10742 175.535 9.88918 177.005C14.6609 178.473 19.7272 175.788 21.221 171.007C21.2232 171 21.2253 170.993 21.2275 170.986L21.2265 170.989L21.2248 170.995C21.2327 170.971 21.2507 170.916 21.2792 170.831C21.3361 170.663 21.435 170.378 21.5797 169.987C21.8692 169.205 22.3413 168 23.0273 166.452C24.4004 163.354 26.6218 158.901 29.9368 153.729C36.5653 143.387 47.5241 130.229 64.7938 119.19L64.7969 119.188C78.4739 110.438 90.4034 108.496 100.898 110.828C111.624 113.211 122.221 120.365 132.381 132.404C132.381 132.404 132.382 132.405 132.382 132.405C141.664 143.412 143.033 158.649 141.948 175.753C141.684 179.93 141.287 184.078 140.873 188.203C140.812 188.812 140.75 189.423 140.688 190.033C140.338 193.503 139.986 196.982 139.732 200.28C139.157 207.726 138.902 215.86 140.995 222.577C142.487 227.364 147.57 230.02 152.348 228.509C157.127 226.997 159.792 221.891 158.3 217.104C157.359 214.083 157.225 209.158 157.807 201.624C158.043 198.559 158.369 195.329 158.72 191.85C158.783 191.23 158.846 190.601 158.91 189.965C159.327 185.814 159.753 181.382 160.041 176.848C161.165 159.11 160.399 137.426 146.239 120.637L146.237 120.636C134.499 106.725 120.709 96.5964 104.874 93.0781ZM21.2284 170.983C21.2281 170.984 21.2278 170.985 21.2275 170.986L21.2284 170.983Z" fill="#9BE1FF"/>
<path d="M41.9434 110.741C41.9434 49.8587 91.2987 0.503418 152.181 0.503418V0.503418C213.064 0.503418 262.42 49.8587 262.42 110.741V170.35C262.42 216.083 225.346 253.157 179.613 253.157H124.75C79.0174 253.157 41.9434 216.083 41.9434 170.35L41.9434 110.741Z" fill="#FF85FF"/>
<path d="M126.583 126.161C114.921 126.699 104.962 117.754 104.42 106.175L102.182 60.977C101.641 49.3985 110.65 39.5108 122.312 38.9735C133.974 38.4362 143.933 47.3812 144.475 58.9597L146.713 104.158C147.254 115.736 138.245 125.554 126.583 126.161Z" fill="white"/>
<mask id="mask0_201_149" style="mask-type:alpha" maskUnits="userSpaceOnUse" x="102" y="38" width="45" height="89">
<path d="M126.581 126.161C114.919 126.699 104.96 117.754 104.418 106.175L102.18 60.977C101.639 49.3985 110.648 39.5108 122.31 38.9735C133.972 38.4362 143.932 47.3812 144.473 58.9597L146.711 104.158C147.252 115.736 138.243 125.554 126.581 126.161Z" fill="white"/>
</mask>
<g mask="url(#mask0_201_149)">
<path d="M135.036 72.3336C130.54 72.5349 126.683 69.1106 126.41 64.5767C126.342 63.3212 126.625 62.0663 127.048 60.9512C125.995 60.7401 124.941 60.6685 123.818 60.6665C116.792 61.0027 111.373 66.9214 111.711 73.8964L113.068 101.029C113.407 108.004 119.369 113.385 126.394 113.049C133.419 112.713 138.839 106.794 138.5 99.819L137.143 72.6861C137.144 72.4071 137.074 72.1977 137.074 71.9188C136.442 72.1269 135.739 72.2651 135.036 72.3336Z" fill="#4D4D4D"/>
</g>
<path d="M128.353 162.727C142.498 162.044 153.353 149.045 152.6 133.694C151.846 118.344 139.77 106.454 125.626 107.137C111.482 107.821 100.626 120.82 101.38 136.17C102.133 151.521 114.209 163.411 128.353 162.727Z" fill="#FF85FF"/>
<path d="M176.883 123.67C165.221 124.207 155.262 115.262 154.72 103.684L152.482 58.4853C151.94 46.9068 160.95 37.0191 172.612 36.4818C184.274 35.9445 194.233 44.8895 194.775 56.4679L197.013 101.666C197.554 113.314 188.615 123.132 176.883 123.67Z" fill="white"/>
<mask id="mask1_201_149" style="mask-type:alpha" maskUnits="userSpaceOnUse" x="152" y="36" width="46" height="88">
<path d="M176.883 123.67C165.221 124.207 155.262 115.262 154.72 103.684L152.482 58.4853C151.94 46.9068 160.95 37.0191 172.612 36.4818C184.274 35.9445 194.233 44.8895 194.775 56.4679L197.013 101.666C197.554 113.314 188.615 123.132 176.883 123.67Z" fill="white"/>
</mask>
<g mask="url(#mask1_201_149)">
<path d="M185.408 69.8419C180.911 70.0432 177.054 66.6189 176.781 62.085C176.713 60.8295 176.996 59.5746 177.42 58.4595C176.366 58.2484 175.313 58.1768 174.189 58.1748C167.163 58.511 161.744 64.4297 162.083 71.4047L163.439 98.5376C163.778 105.513 169.74 110.893 176.765 110.557C183.791 110.221 189.21 104.302 188.871 97.3273L187.514 70.1944C187.515 69.9154 187.445 69.706 187.446 69.4271C186.813 69.7049 186.11 69.8432 185.408 69.8419Z" fill="#4D4D4D"/>
</g>
<path d="M178.729 160.305C192.874 159.621 203.729 146.623 202.976 131.272C202.222 115.921 190.146 104.031 176.002 104.715C161.858 105.399 151.002 118.397 151.756 133.748C152.509 149.099 164.585 160.989 178.729 160.305Z" fill="#FF85FF"/>
<path d="M171.574 147.234C169.893 144.72 167.945 133.767 170.336 132.516C172.656 131.265 177.909 139.922 177.973 143.689C178.036 147.594 173.256 149.678 171.574 147.234Z" fill="white"/>
<path d="M136.095 148.636C137.785 146.128 139.771 135.182 137.385 133.922C135.069 132.663 129.785 141.302 129.708 145.068C129.631 148.973 134.404 151.144 136.095 148.636Z" fill="white"/>
<path fill-rule="evenodd" clip-rule="evenodd" d="M190.288 130.599C192.613 132.337 193.079 135.616 191.329 137.924C188.725 141.359 178.862 153.24 161.314 156.802C137.848 161.604 120.372 147.587 118.049 145.592C115.848 143.702 115.608 140.398 117.512 138.214C119.415 136.029 122.743 135.79 124.943 137.68C126.688 139.179 140.777 150.325 159.191 146.555L159.2 146.554C172.991 143.754 180.867 134.327 182.91 131.632C184.66 129.324 187.963 128.862 190.288 130.599Z" fill="#80028B"/>
<path d="M137.694 272.226H115.424C111.729 272.226 108.683 269.531 108.683 266.267C108.683 263.003 111.729 260.308 115.424 260.308H137.694C141.39 260.308 144.436 263.003 144.436 266.267C144.436 269.583 141.439 272.226 137.694 272.226Z" fill="#9BE1FF"/>
<path d="M190.131 272.226H167.86C164.165 272.226 161.119 269.531 161.119 266.267C161.119 263.003 164.165 260.308 167.86 260.308H190.131C193.826 260.308 196.872 263.003 196.872 266.267C196.872 269.583 193.876 272.226 190.131 272.226Z" fill="#9BE1FF"/>
</svg>
